<?xml version="1.0" encoding="UTF-8"?>
<svg id="Layer_1" data-name="Layer 1" xmlns="http://www.w3.org/2000/svg" viewBox="0 0 572.92 1021.18">
  <defs>
    <style>
      .cls-1 {
        fill: none;
      }

      .cls-1, .cls-2 {
        stroke: #201404;
        stroke-miterlimit: 10;
      }

      .cls-2 {
        fill: #201404;
      }
    </style>
  </defs>
  <g id="Layer_2" data-name="Layer 2">
    <g id="Layer_1-2" data-name="Layer 1">
      <rect class="cls-2" x="60.66" y="651.74" width="346.69" height="71.54" rx="4.1" ry="4.1"/>
      <rect class="cls-2" x="106.88" y="723.29" width="258.86" height="60.09"/>
      <path class="cls-2" d="m466.39,985.4l-53.24-182.21c-3.43-11.74-14.2-19.82-26.44-19.82H81.3c-12.24,0-23,8.07-26.44,19.82L1.62,985.41c-5.15,17.63,8.07,35.27,26.44,35.27h0s411.89-.01,411.89-.01c18.37,0,31.59-17.64,26.44-35.27Zm-58.89-123.73H62.54l9.75-34.43c1.67-6.74,8.78-11.57,17.01-11.57h291.23c8.03,0,15.01,4.59,16.89,11.1l10.08,34.89h0Z"/>
    </g>
    <path class="cls-2" d="m532.87,360.85c-11.12,26.79-55.28,128.16-160.92,213.54-57.26,46.28-108.91,69.97-127.32,77.99,45.14-86.67,79.6-151.76,102.78-195.3,27.06-50.83,45.53-85.01,67.13-136.99,9.11-21.93,17.72-44.75,34.93-90.4,0,0,31.71-84.09,53.1-128.11.18-.37,3.82-7.88,3.81-7.87-1.28,2.6-2.57,5.2-3.85,7.84-51.62,104.74-95.38,178.1-112.22,206.98-40.6,69.65-97.21,176.81-162.36,335.74-10.05-38.86-52.8-221.12,51.8-406.67C367.85,81.31,506.45,18.39,549.93.67h0c14.07,48.47,50.5,197.4-17.06,360.18Z"/>
    <path class="cls-2" d="m209.04,745.3l-28.63-13.94,37.27-137.18c9.71,1.11,20.49,4.16,25.71,12.52,13.48,21.59-17.39,67.1-18.36,66.64-.97-.45,14.15-53.07,39.15-56.52,10.25-1.42,20.07,5.73,27.71,13.49-27.62,38.33-55.23,76.66-82.85,114.99h0Z"/>
    <line class="cls-1" x1="244.05" y1="652.92" x2="244.05" y2="694.01"/>
  </g>
</svg>